<?xml version="1.0" encoding="UTF-8"?>
<!DOCTYPE svg PUBLIC "-//W3C//DTD SVG 1.1//EN" "http://www.w3.org/Graphics/SVG/1.1/DTD/svg11.dtd">
<!-- Creator: CorelDRAW 2018 (64 Bit Versão de avaliação) -->
<svg xmlns="http://www.w3.org/2000/svg" xml:space="preserve" width="42.3332mm" height="4.6566mm" version="1.1" style="shape-rendering:geometricPrecision; text-rendering:geometricPrecision; image-rendering:optimizeQuality; fill-rule:evenodd; clip-rule:evenodd"
viewBox="0 0 4233.32 465.66"
 xmlns:xlink="http://www.w3.org/1999/xlink">
 <defs>
  <style type="text/css">
   <![CDATA[
    .fil0 {fill:none}
    .fil2 {fill:#0A75BC;fill-rule:nonzero}
    .fil1 {fill:#231F20;fill-rule:nonzero}
   ]]>
  </style>
 </defs>
 <g id="Camada_x0020_1">
  <metadata id="CorelCorpID_0Corel-Layer"/>
  <rect class="fil0" x="0.02" y="0.16" width="4233.28" height="465.34"/>
  <path class="fil1" d="M425.8 253.77l-193.11 193.12 -212.9 -212.9 212.9 -212.89 194.28 194.28 -112.66 0c-8.13,-34.03 -38.71,-59.33 -75.23,-59.33 -42.72,0 -77.36,34.64 -77.36,77.36 0,42.73 34.64,77.36 77.36,77.36 35.68,0 65.69,-24.15 74.63,-57l-75.21 0 0 -18.61 77.9 0 128.02 0 20.91 0c0,-0.78 0.03,-1.55 0.03,-2.33 0,-128.5 -104.17,-232.67 -232.67,-232.67 -128.51,0 -232.68,104.17 -232.68,232.67 0,128.5 104.17,232.67 232.68,232.67 121.44,0 221.13,-93.04 231.72,-211.73l-38.61 0z"/>
  <g id="_1922512641712">
   <path class="fil1" d="M996.95 413.81l-1.03 -361.94 -68.86 0 -133.31 224.92 -135.39 -224.92 -69.28 0 0 361.94 78.59 0 0 -212.51 105.91 174.25 37.75 0 106.42 -178.91 0.52 217.17 78.68 0zm85.92 0l83.76 0 0 -361.94 -83.76 0 0 361.94zm418.82 -361.94l0 219.75 -179.94 -219.75 -69.28 0 0 361.94 82.73 0 0 -219.75 180.45 219.75 68.77 0 0 -361.94 -82.73 0zm168.56 361.94l83.76 0 0 -361.94 -83.76 0 0 361.94zm344.88 6.2c113.75,0 198.03,-79.11 198.03,-187.17 0,-108.07 -84.28,-187.18 -198.03,-187.18 -114.27,0 -198.03,79.63 -198.03,187.18 0,107.55 83.76,187.17 198.03,187.17zm0 -71.35c-64.63,0 -113.24,-47.05 -113.24,-115.82 0,-68.77 48.61,-115.82 113.24,-115.82 64.63,0 113.24,47.05 113.24,115.82 0,68.77 -48.61,115.82 -113.24,115.82zm510.34 -296.79l0 219.75 -179.94 -219.75 -69.28 0 0 361.94 82.73 0 0 -219.75 180.45 219.75 68.77 0 0 -361.94 -82.73 0z"/>
   <path class="fil2" d="M3101.9 413.81l-1.03 -361.94 -68.86 0 -133.31 224.92 -135.39 -224.92 -69.28 0 0 361.94 78.59 0 0 -212.51 105.91 174.25 37.75 0 106.42 -178.91 0.52 217.17 78.68 0zm356.33 0l87.9 0 -161.83 -361.94 -82.73 0 -161.32 361.94 85.83 0 32.06 -77.56 168.03 0 32.06 77.56zm-173.21 -141.16l57.4 -138.57 57.39 138.57 -114.79 0zm619.43 141.16l-81.18 -116.34c47.06,-20.16 74.46,-59.98 74.46,-114.27 0,-81.18 -60.49,-131.33 -157.18,-131.33l-156.67 0 0 361.94 83.76 0 0 -100.83 72.91 0 4.13 0 69.8 100.83 89.97 0zm-91.52 -230.61c0,39.3 -25.85,63.08 -77.04,63.08l-68.25 0 0 -126.16 68.25 0c51.19,0 77.04,23.27 77.04,63.08zm220.79 230.61l83.76 0 0 -293.69 115.82 0 0 -68.25 -315.4 0 0 68.25 115.82 0 0 293.69z"/>
  </g>
 </g>
</svg>
