<?xml version="1.0" standalone="no"?>
<!DOCTYPE svg PUBLIC "-//W3C//DTD SVG 20010904//EN"
 "http://www.w3.org/TR/2001/REC-SVG-20010904/DTD/svg10.dtd">
<svg version="1.0" xmlns="http://www.w3.org/2000/svg"
 width="700.000000pt" height="700.000000pt" viewBox="0 0 700.000000 700.000000"
 preserveAspectRatio="xMidYMid meet">
<metadata>
Created by potrace 1.11, written by Peter Selinger 2001-2013
</metadata>
<g transform="translate(0.000000,700.000000) scale(0.100000,-0.100000)"
fill="#000000" stroke="none">
<path d="M3280 5750 c-30 -4 -77 -11 -105 -14 -162 -20 -425 -95 -580 -165
-277 -125 -481 -265 -691 -475 -341 -342 -545 -734 -630 -1211 -40 -229 -40
-541 1 -774 28 -162 91 -375 147 -501 38 -84 94 -195 121 -237 15 -24 27 -45
27 -48 0 -9 110 -166 168 -240 31 -38 110 -124 176 -190 287 -285 638 -485
1018 -581 116 -29 107 -27 208 -44 41 -6 86 -14 100 -17 14 -2 111 -6 215 -8
391 -6 706 64 1050 235 479 238 850 627 1070 1123 58 132 129 365 149 494 7
44 15 104 22 154 l5 46 -189 -1 -189 -1 -936 -936 -937 -937 -1030 1030 c-567
567 -1030 1033 -1030 1036 0 4 463 471 1030 1037 l1030 1030 210 -210 c259
-259 1663 -1664 1669 -1670 2 -3 -241 -5 -541 -5 l-544 0 -23 69 c-44 135
-162 291 -282 374 -119 81 -276 129 -423 130 -548 4 -916 -567 -685 -1062 124
-267 383 -434 674 -434 55 0 114 2 130 6 17 3 43 9 60 12 52 11 175 66 233
105 133 89 229 211 286 361 l25 66 -347 1 c-191 0 -356 1 -367 1 -18 1 -20 7
-18 83 1 46 2 86 2 89 1 4 488 7 1084 7 595 0 1090 1 1100 1 18 1 18 9 12 131
-3 72 -8 139 -10 149 -2 10 -6 42 -10 72 -11 90 -70 335 -94 394 -5 11 -17 43
-26 70 -39 112 -118 272 -199 403 -170 274 -444 548 -717 717 -83 52 -220 124
-299 158 -19 8 -51 21 -70 30 -118 50 -361 114 -505 133 -27 3 -59 8 -70 11
-35 8 -417 10 -475 3z"/>
</g>
</svg>
